<?xml version="1.0" encoding="UTF-8"?>
<svg id="Layer_1" data-name="Layer 1" xmlns="http://www.w3.org/2000/svg" viewBox="0 0 3414.35 774.49">
  <defs>
    <style>
      .cls-1 {
        letter-spacing: -.02em;
      }

      .cls-2 {
        letter-spacing: -.08em;
      }

      .cls-3 {
        letter-spacing: -.02em;
      }

      .cls-4 {
        letter-spacing: -.02em;
      }

      .cls-5 {
        letter-spacing: -.02em;
      }

      .cls-6 {
        letter-spacing: 0em;
      }

      .cls-7 {
        letter-spacing: -.03em;
      }

      .cls-8 {
        font-size: 245.8px;
      }

      .cls-8, .cls-9 {
        font-family: GTEestiProDisplay-Regular, 'GT Eesti Pro Display';
      }

      .cls-8, .cls-9, .cls-10, .cls-11 {
        fill: #fff;
      }

      .cls-9 {
        font-size: 120px;
      }

      .cls-12 {
        letter-spacing: -.03em;
      }

      .cls-13 {
        letter-spacing: -.02em;
      }

      .cls-14 {
        letter-spacing: -.01em;
      }

      .cls-10 {
        font-family: GTEestiProDisplay-Bold, 'GT Eesti Pro Display';
        font-size: 118.91px;
        font-weight: 700;
      }

      .cls-15 {
        letter-spacing: 0em;
      }

      .cls-16 {
        letter-spacing: -.01em;
      }

      .cls-11 {
        stroke-width: 0px;
      }
    </style>
  </defs>
  <text class="cls-8" transform="translate(906.02 251.36)"><tspan class="cls-3" x="0" y="0">C</tspan><tspan x="162.72" y="0">e</tspan><tspan class="cls-13" x="289.8" y="0">n</tspan><tspan x="416.38" y="0">t</tspan><tspan class="cls-13" x="492.33" y="0">r</tspan><tspan x="567.3" y="0">e </tspan><tspan class="cls-13" x="765.66" y="0">f</tspan><tspan x="833.25" y="0">or I</tspan><tspan class="cls-3" x="1185.22" y="0">n</tspan><tspan x="1313.04" y="0">f</tspan><tspan class="cls-13" x="1386.77" y="0">r</tspan><tspan x="1461.74" y="0">astructu</tspan><tspan class="cls-13" x="2306.29" y="0">r</tspan><tspan x="2381.25" y="0">e</tspan></text>
  <text class="cls-9" transform="translate(933.24 428.44)"><tspan x="0" y="0">Sus</tspan><tspan class="cls-4" x="171.48" y="0">t</tspan><tspan x="206.16" y="0">ainable</tspan><tspan class="cls-7" x="593.88" y="0"> </tspan><tspan class="cls-2" x="625.07" y="0">T</tspan><tspan class="cls-12" x="677.64" y="0">r</tspan><tspan x="714.23" y="0">anspor</tspan><tspan class="cls-5" x="1071.95" y="0">t</tspan><tspan class="cls-6" x="1106.63" y="0">ation &amp; Urban Planning</tspan></text>
  <text class="cls-10" transform="translate(936.02 744.52)"><tspan x="0" y="0">Indian Institu</tspan><tspan class="cls-16" x="699.87" y="0">t</tspan><tspan x="741.13" y="0">e </tspan><tspan class="cls-14" x="833.16" y="0">o</tspan><tspan x="898.56" y="0">f Scien</tspan><tspan class="cls-1" x="1247.06" y="0">c</tspan><tspan class="cls-15" x="1298.19" y="0">e ( IISc ), Bengaluru</tspan></text>
  <g>
    <path class="cls-11" d="M389.07,755.27c-3.66-.76-5.9-2.15-10.55-6.57-2.95-2.82-5.54-4.83-7.29-5.68-1.43-.72-2.73-1.39-2.82-1.47-.09-.04.09-.72.4-1.43l.54-1.34,1.74.85c4.07,2.1,13.41,3.08,17.16,1.83,5.45-1.83,7.69-6.61,4.69-10.01-1.74-2.01-3.98-2.55-10.19-2.55-6.88,0-9.79-1.16-12.02-4.83-1.83-2.99-1.25-6.08,1.74-8.89,3.93-3.8,9.83-4.56,20.92-2.59,8.36,1.43,11.53,1.92,14.66,2.15l2.32.18v-7.02h-50.06v35.35l1.16,1.07c.67.63,1.7,1.12,2.23,1.12.85,0,1.07.22,1.07,1.12v1.12h-19.67v-1.12c0-.67.27-1.12.67-1.12,1.21,0,2.82-.98,3.31-2.1.58-1.25.67-5.5.13-5.5-.22,0-.85.49-1.39,1.07-.54.58-2.23,1.65-3.75,2.32-2.46,1.16-3.26,1.3-7.24,1.25-5.59,0-8.54-1.07-12.07-4.25-3.53-3.26-4.92-6.35-4.92-10.91,0-2.99.22-3.93,1.21-5.86,1.61-3.08,5.54-6.57,8.76-7.82,5.81-2.23,13.19-1.34,17.65,2.06l2.1,1.61v-9.43h-38.44v34.95l1.3,1.3c.72.72,1.74,1.3,2.23,1.3.72,0,.94.27.94,1.12v1.12h-19.67v-1.12c0-.89.22-1.12,1.12-1.12.63,0,1.65-.49,2.23-1.12l1.12-1.07v-35.35h-6.7v-4.02h215.43v4.02h-6.7v34.95l1.3,1.3c.72.72,1.74,1.3,2.23,1.3.72,0,.94.27.94,1.12v1.12h-19.22v-1.12c0-.85.22-1.12.89-1.12.54,0,1.43-.49,2.06-1.12l1.07-1.07-.09-10.19-.13-10.15-1.79-1.03c-2.06-1.21-6.26-2.55-9.16-3.04l-2.01-.31,1.65,1.39c.89.76,2.19,2.5,2.82,3.84,4.25,8.67-2.46,18.77-13.19,19.76-4.83.45-10.68-1.88-13.9-5.59-4.83-5.5-4.34-13.59,1.16-19.08,1.12-1.16,3.22-2.64,4.6-3.26,2.41-1.16,2.86-1.21,9.25-1.16,7.51.04,11,.76,17.3,3.49l3.49,1.52v-11.53h-47.38v35.71l1.16.89c.67.54,1.56.94,2.01.94.63,0,.85.31.85,1.12v1.12h-19.22v-1.12c0-.8.22-1.12.85-1.12.45,0,1.34-.4,2.01-.94l1.16-.89v-35.71h-11.62v35.71l1.16.89c.67.54,1.56.94,2.01.94.63,0,.85.31.85,1.12v1.12h-19.22v-1.12c0-.8.22-1.12.85-1.12.45,0,1.34-.4,2.01-.94l1.16-.89v-12.25c0-13.41.13-12.74-2.77-12.74-.76,0-4.11-.63-7.46-1.39-7.78-1.74-12.34-2.1-14.21-1.12-1.92.94-3.26,2.82-3.26,4.38,0,1.83,1.16,4.16,2.37,4.74.54.27,4.02.58,7.91.63,6.44.13,7.11.22,9.16,1.3,3.84,1.97,5.72,5.81,4.96,10.06-.22,1.12-.98,2.28-2.46,3.75-2.82,2.82-6.08,4.02-11.8,4.34q-4.34.27-3.58,1.16c2.77,3.13,5.94,4.16,8.58,2.77,1.16-.58,1.34-.58,1.97.13.67.72.63.89-.4,2.23-2.32,2.95-6.48,4.42-10.32,3.66h0ZM470.15,739.09c.72-1.25.8-2.68.8-10.19,0-9.48-.36-11.26-2.37-11.53-1.79-.27-2.46,2.28-2.68,10.1-.18,6.93.18,10.01,1.52,12.07.89,1.39,1.79,1.25,2.73-.45h0ZM344.74,737.31c.85-.27,2.28-1.03,3.22-1.61l1.65-1.12-.09-7.2-.13-7.2-2.46-1.43c-2.91-1.79-6.39-2.01-8.94-.63-2.23,1.16-4.29,4.07-4.96,6.97-1.74,7.82,4.78,14.62,11.71,12.2h0Z"/>
    <path class="cls-11" d="M62.66,746.6c0-.8.31-1.12,1.3-1.3.72-.18,1.74-.72,2.23-1.25.85-.94.94-1.56.94-8.09v-7.06h-10.64l-.18,3.31c-.13,2.91-.31,3.53-1.52,5.05-4.25,5.23-13.59,5.5-18.55.54-5.18-5.18-1.79-11.44,6.75-12.34l2.68-.27v-5.94l-3.35-.54c-7.02-1.12-10.95-4.78-10.95-10.32,0-3.35,2.01-6.08,5.99-8.09,2.73-1.39,3.44-1.56,6.53-1.56s3.8.18,6.53,1.56c2.19,1.12,3.44,2.1,4.42,3.49l1.34,1.97.13,9.79.13,9.79h10.68v-17.43h-4.47v-4.02h140.34l-.27-2.55c-.85-8.18-3.84-13.54-7.55-13.54-1.79,0-3.71,1.43-4.51,3.4-1.03,2.41-.8,6.84.45,9.25l1.03,2.1h-12.16l-1.21-1.92c-2.37-3.75-2.46-6.48-.4-9.88,2.86-4.56,11.62-6.84,19.04-4.96,8.63,2.19,15.2,8.72,16.13,16l.31,2.1h59.31v4.02h-6.7v35.71l1.16.89c.67.54,1.56.94,2.01.94.63,0,.85.31.85,1.12v1.12h-19.67v-1.07c0-.8.31-1.12,1.43-1.34,2.68-.54,3.04-1.25,3.04-6.26v-4.51l-1.07,1.56c-3.84,5.63-14.08,7.96-21.05,4.74-6.12-2.77-10.82-9.7-11.67-17.21l-.27-2.64,1.92.4c5.5,1.03,10.15.04,12.65-2.73,1.3-1.47,1.61-2.15,1.61-3.71,0-2.37-1.16-4.34-3.4-5.72-1.65-1.03-2.15-1.07-11-1.21l-9.3-.13v18.06c0,19.71-.13,18.82,2.59,19.35,1.12.22,1.43.54,1.43,1.34v1.07h-19.22v-1.12c0-.89.22-1.12,1.07-1.12.58,0,1.56-.4,2.23-.94l1.16-.89v-35.71h-12.07v35.35l1.12,1.07c.58.63,1.47,1.12,2.01,1.12.67,0,.89.27.89,1.12v1.12h-19.22v-1.12c0-.8.22-1.12.85-1.12.45,0,1.34-.4,2.01-.94l1.16-.89v-23.15l-1.21-.85c-3.49-2.46-9.74-3.08-13.1-1.3-2.5,1.3-4.69,4.51-5.36,7.69-.94,4.56.58,11.49,3.35,15.11l1.47,1.97-4.92,2.41-4.92,2.41-2.46-2.68c-2.77-3.04-4.74-6.84-5.5-10.68-1.79-8.76,3.93-16.76,14.08-19.71,3.98-1.16,11.98-.76,15.78.76l2.77,1.16v-8.85l-26.91.04c-22.57.04-26.64.13-24.94.58,5.81,1.65,9.56,4.38,11.58,8.36.85,1.65,1.39,3.49,1.39,4.51,0,5.27-5.05,10.28-12.78,12.69-3.66,1.16-3.71,1.16-3.04,2.15.94,1.52,3.93,3.8,6.3,4.83,1.83.8,2.37.85,4.29.4,1.21-.27,2.77-.94,3.49-1.43,1.07-.76,1.47-.8,1.97-.4,1.03.85.8,1.47-1.43,3.66-2.95,2.91-6.3,4.38-9.88,4.38-4.29,0-6.84-1.43-13.27-7.6-2.95-2.86-6.21-5.59-7.2-6.08-1.56-.76-1.79-1.03-1.47-1.83.31-.89.49-.94,2.06-.49,2.46.72,8.09.67,10.15-.04,2.19-.76,5.41-3.71,6.66-6.08.67-1.3.94-2.59.94-4.92,0-4.96-2.19-8.85-6.39-11.31-2.06-1.21-2.15-1.21-11.31-1.34l-9.3-.13v17.57c0,17.21,0,17.65.94,18.64.49.54,1.52,1.07,2.23,1.25.98.18,1.3.49,1.3,1.3v1.07h-19.67v-1.07c0-.8.31-1.12,1.34-1.3.72-.18,1.74-.72,2.23-1.21.85-.85.89-1.39.89-18.55v-17.65h-12.07v17.65c0,17.16.04,17.7.89,18.55.49.49,1.52,1.03,2.23,1.21,1.03.18,1.34.49,1.34,1.3v1.07h-19.67v-1.07h0ZM249.98,735.7c1.39-.72,3.04-2.06,3.84-3.17l1.47-1.92v-22.71h-6.35l-6.39.04,2.68,1.25c1.47.67,3.26,1.88,3.93,2.68,4.02,4.78-2.19,10.95-12.07,11.93l-2.91.31.27,1.97c1.16,8.54,8.67,13.19,15.51,9.61h0ZM44.97,735.52c.49-.67.72-2.01.72-3.8v-2.82h-2.15c-2.46,0-3.49.76-3.93,2.99-.27,1.43.67,3.89,1.7,4.29,1.43.58,3.04.27,3.67-.67h0ZM45.41,714.78c.13-.4.27-3.17.27-6.21,0-4.42-.13-5.68-.72-6.21-.36-.4-.85-.72-1.07-.72s-.72.31-1.07.72c-.58.54-.72,1.79-.72,6.21,0,3.04.13,5.81.27,6.21.18.4.8.72,1.52.72s1.34-.31,1.52-.72Z"/>
    <path class="cls-11" d="M548.05,746.69c-1.12-.54-4.42-3.35-7.37-6.21-2.95-2.86-6.21-5.63-7.29-6.17-1.61-.85-1.88-1.12-1.61-1.97.13-.54.31-1.03.36-1.07,0-.04,1.16.13,2.5.4,6.75,1.25,13.63-1.52,16.18-6.53,2.19-4.2.76-10.24-3.26-13.86-3.08-2.77-5.23-3.4-11.89-3.4h-5.5v-4.02h107.72v4.02l-13.27.04h-13.32l2.91.8c7.78,2.1,12.96,7.06,12.96,12.29,0,2.59-1.74,5.99-4.2,8.22-2.32,2.15-7.6,4.87-10.24,5.32-.89.13-1.79.4-1.92.63-.09.22.58,1.16,1.56,2.15,4.47,4.47,7.87,5.36,11,2.99l1.7-1.3.8,1.07.85,1.07-2.19,2.06c-4.74,4.42-9.48,5.54-14.3,3.31-1.7-.8-3.71-2.46-6.93-5.77-2.68-2.73-5.59-5.18-7.06-6.03-2.23-1.25-2.5-1.56-2.19-2.41.27-.63.67-.94,1.21-.8.49.04,2.55.13,4.65.18,3.17.04,4.2-.13,6.26-1.07,3.17-1.47,5.1-3.13,6.61-5.72.98-1.7,1.21-2.59,1.21-4.96-.04-3.49-1.07-5.77-3.8-8.22-3.58-3.22-4.92-3.58-14.84-3.75l-8.85-.18v35.04l1.3,1.3c.72.72,1.74,1.3,2.23,1.3.72,0,.94.27.94,1.12v1.12h-19.67v-1.12c0-.89.22-1.12,1.12-1.12.63,0,1.65-.49,2.23-1.12,1.07-1.03,1.12-1.3,1.12-7.42v-6.3l-.98.31c-.58.18-2.32.4-3.93.54-3.75.27-6.44-.63-6.61-2.15-.18-1.92.45-2.32,2.37-1.47,2.19.89,6.21.67,7.96-.45l1.21-.8v-18.68h-12.83l-12.87.04,3.13,1.03c4.07,1.3,4.87,1.74,7.51,4.25,3.8,3.53,4.96,7.06,3.71,11.31-1.52,5.18-6.93,9.16-14.21,10.41-.94.13-1.7.45-1.7.63,0,.72,5.1,5.1,6.66,5.72,1.79.76,4.42.45,6.93-.8,1.61-.85,1.74-.85,2.55-.13.85.76.85.85-.98,2.68-2.86,2.91-6.21,4.38-10.24,4.56-2.73.09-3.75-.09-5.36-.89h0Z"/>
    <path class="cls-11" d="M672.31,746.56c0-.85.22-1.12.89-1.12.54,0,1.43-.49,2.01-1.12.98-.94,1.12-1.47,1.12-4.51v-3.44l-2.23,2.1c-3.4,3.17-7.78,4.87-14.12,5.45-10.1.94-18.77-5.68-20.74-15.82-.31-1.52-.49-2.91-.36-2.99.13-.13.85,0,1.65.27.85.31,3.49.45,6.66.31,4.34-.13,5.63-.36,7.46-1.21l2.23-1.07-2.1-.36c-3.75-.58-6.48-1.74-8.63-3.62-5.5-4.83-5.01-10.91,1.21-14.79,6.84-4.25,18.15-2.91,23.29,2.77,1.92,2.15,2.41,4.2,1.7,7.42-1.52,6.7-8.85,11.98-18.28,13.14-1.83.22-3.35.49-3.49.58-.45.49.98,3.75,2.32,5.27,5.32,5.86,18.59,5.01,22.53-1.47.8-1.34.89-2.28.89-12.92v-11.53h-1.56q-1.56,0-1.56-2.01v-2.01h101.91v4.02h-6.7v17.21c0,11.62.18,17.52.49,18.24.49,1.12,2.1,2.1,3.31,2.1.4,0,.67.45.67,1.12v1.12h-19.67v-1.07c0-.8.31-1.12,1.34-1.3.72-.18,1.74-.72,2.23-1.21.89-.89.89-1.34.8-11.08l-.13-10.15-2.5-1.25c-2.32-1.16-8.22-2.95-9.74-2.99-.4,0,.13.8,1.16,1.83,2.55,2.5,3.4,4.51,3.62,8.31.18,2.73,0,3.58-1.03,5.81-2.55,5.63-7.78,8.8-14.53,8.8-4.87,0-8-1.21-11.35-4.25-5.36-4.92-6.12-12.47-1.79-18.41,4.34-5.94,11.53-7.82,22.66-5.9,3.93.67,10.32,2.82,12.2,4.02.58.36,1.16.67,1.3.67s.22-2.59.22-5.81v-5.81h-47.87l.13,17.7.13,17.7,1.25,1.07c.67.58,1.65,1.07,2.15,1.07.63,0,.85.31.85,1.12v1.12h-19.22v-1.12c0-.8.22-1.12.85-1.12.45,0,1.34-.4,2.01-.94l1.16-.89v-35.71h-12.07v34.95l1.3,1.3c.72.72,1.74,1.3,2.23,1.3.72,0,.94.27.94,1.12v1.12h-19.22v-1.12h0ZM735.51,739.85c1.12-1.12,1.39-3.53,1.39-11.62-.04-8.36-.58-10.95-2.41-10.95-1.39,0-2.19,2.06-2.73,6.79-.76,6.35.04,13.86,1.65,15.69.89.94,1.21.94,2.1.09ZM660.19,719.29c1.61-.8,1.83-1.65,1.83-6.79,0-4.56-.45-6.03-2.1-6.79-2.23-1.03-5.9-.18-6.57,1.52-.36.98-.36,9.79,0,10.73.67,1.74,4.6,2.5,6.84,1.34h0Z"/>
    <path class="cls-11" d="M628.86,729.57c-2.5-.8-2.77-1.16-2.06-2.68.36-.8.72-1.07,1.21-.85,2.95,1.25,6.08,1.25,9.07-.04.58-.22.85,0,1.16,1.21.36,1.39.31,1.52-.98,2.1-2.1.89-5.99,1.03-8.4.27h0Z"/>
    <path class="cls-11" d="M299.24,700.88c-1.3-2.41-1.56-3.93-1.03-5.99,1.07-3.89,6.48-7.78,13.41-9.65,4.38-1.21,15.46-1.07,20.34.22,5.41,1.47,11.13,4.47,14.75,7.78,2.95,2.73,5.59,6.21,6.21,8.31q.31.98-4.96.98h-5.27l-1.47-2.86c-3.53-6.79-10.68-11.53-18.59-12.2-7.69-.63-11.26,2.77-11.53,10.91l-.13,4.16h-10.77l-.94-1.65h0Z"/>
    <path class="cls-11" d="M578.81,694.71c-1.52-.85-2.59-2.82-2.59-4.74,0-.98.45-1.83,1.52-2.91,1.25-1.25,1.88-1.52,3.4-1.52s2.15.27,3.4,1.52c1.25,1.25,1.52,1.88,1.52,3.35,0,3.62-4.11,6.08-7.24,4.29Z"/>
    <path class="cls-11" d="M35.85,652.21c0-.09,3.44-9.92,7.64-21.9,4.16-11.93,7.51-21.99,7.42-22.26-.13-.31-11.71-4.56-25.7-9.48C11.18,593.7-.18,589.54,0,589.41c.58-.54,20.83-7.06,30.57-9.79,49.03-13.99,111.96-24.98,160.05-28.07l5.27-.31-4.11-3.35c-4.83-3.93-9.7-9.34-13.45-14.97-2.86-4.2-7.6-13.41-8.49-16.4-.36-1.21-.94-1.97-1.88-2.46-.76-.4-2.91-1.74-4.74-2.95-14.17-9.48-23.78-21.95-29.28-37.95-1.56-4.47-1.74-4.83-2.86-4.83-.63,0-1.61-.36-2.15-.8-1.83-1.43-13.36-25.97-19.8-42.1-4.6-11.58-6.79-18.33-6.3-19.67.27-.85.22-1.39-.27-2.06-1.3-1.7-5.41-10.32-6.75-14.08-2.77-7.91-3.4-11.75-3.49-22.17-.04-7.06-.22-9.7-.63-10.19-.36-.4-.94-3.75-1.39-7.73-2.5-22.62-2.59-46.84-.13-69.14,1.43-13.05,5.45-36.07,6.61-37.99.31-.49.72-2.55.89-4.6,1.16-14.39,6.97-27.71,17.43-40.23,1.92-2.28,4.56-5.1,5.9-6.26,2.23-1.97,2.41-2.23,2.41-4.2,0-5.45,2.46-15.6,5.45-22.48,5.41-12.51,17.03-25.7,29.19-33.21,1.92-1.21,2.37-1.74,3.31-4.2.58-1.56,1.97-4.6,3.08-6.84,6.3-12.65,17.79-24,31.06-30.71,2.01-.98,4.02-2.32,4.51-2.95,6.93-8.8,15.87-16.09,25.97-21.14,4.11-2.1,4.65-2.5,6.88-5.45,9.07-12.07,20.92-21.19,33.88-26.01,1.7-.63,4.16-1.88,5.5-2.77,9.39-6.21,29.1-13.86,48.32-18.68,12.83-3.22,26.86-5.59,33.07-5.59,1.92,0,3.98-.45,7.2-1.56,9.79-3.4,21.77-5.1,38.35-5.45,20.96-.45,38.93,1.7,50.86,6.08,2.1.76,6.75,1.83,10.73,2.5,24.85,4.16,51.18,12.83,65.75,21.63,2.55,1.56,5.94,3.31,7.6,3.93,7.29,2.73,15.15,7.51,21.95,13.32,3.66,3.13,10.55,10.73,12.78,14.03.85,1.34,1.97,2.15,4.56,3.4,9.61,4.56,18.86,11.75,25.57,19.89,1.97,2.41,3.08,3.26,6.7,5.18,6.97,3.67,12.34,7.6,17.88,13.14,7.15,7.11,11.49,13.68,15.42,23.33,1.34,3.31,1.52,3.58,4.51,5.54,15.64,10.41,26.5,24.72,31.24,41.07,1.3,4.6,2.46,11.13,2.46,14.17,0,1.83.18,2.19,1.39,3.08,2.37,1.65,9.3,9.79,12.69,14.93,6.84,10.19,10.73,21.1,11.67,32.4.18,2.1.58,4.2.89,4.69,1.34,2.19,5.41,26.19,6.88,40.67,2.19,21.95,1.97,45.01-.72,69.95-.18,1.34-.63,3.08-1.07,3.8-.67,1.21-.72,2.32-.54,8.27.22,8.13-.54,14.44-2.64,21.54-1.34,4.6-4.65,12.11-7.06,16-.98,1.61-1.16,2.28-.85,3.08.98,2.68-9.43,28.74-20.43,51.22-5.14,10.59-5.72,11.4-8.22,11.4-.67,0-1.21,1.03-2.5,4.83-5.5,16-15.11,28.47-29.28,37.95-1.83,1.21-3.98,2.55-4.74,2.95-.89.45-1.52,1.21-1.74,1.97-.63,2.5-5.68,12.47-8.45,16.63-3.8,5.72-8.67,11.22-13.36,15.02-2.1,1.74-3.71,3.17-3.53,3.22.18.04,5.14.4,11.04.8,48.54,3.22,110.98,14.12,158.44,27.67,10.86,3.13,31.29,9.7,31.29,10.1,0,.18-11.4,4.29-25.34,9.16-13.99,4.87-25.52,8.98-25.66,9.12-.18.13,3.08,9.92,7.24,21.72,4.16,11.8,7.64,21.81,7.82,22.21.18.67-.13.63-2.82-.36-29.59-11.31-82.02-23.2-128.19-29.01-24.36-3.04-40.76-3.98-63.91-3.66-41.57.63-76.29,5.27-114.29,15.29-6.03,1.56-11.35,2.99-11.8,3.17s6.66-7.24,15.82-16.45l16.72-16.76-4.2-1.16c-44.65-12.51-95.78-13.27-141.15-2.1-4.07,1.03-8.45,2.15-9.79,2.55l-2.41.67,16.72,16.76c9.21,9.25,16.36,16.67,15.96,16.54-2.59-.89-24.31-6.39-31.11-7.91-47.82-10.55-99.98-13.36-149.59-8.05-45.28,4.87-98.55,16.31-133.19,28.52-4.07,1.47-7.37,2.59-7.37,2.5h0ZM56.41,636.92c41.25-12.51,93.41-22.12,139.23-25.66,10.06-.76,48.14-.76,59,0,16.22,1.16,30.48,2.68,43.04,4.6,3.31.49,6.17.85,6.39.76.67-.22-22.62-11.58-30.21-14.75-8.8-3.66-24.98-11.67-34.19-16.98-12.16-6.97-26.91-16.76-35.98-23.82l-2.68-2.1-4.47.31c-46.39,2.95-96.54,10.86-143.47,22.62-17.57,4.42-28.16,7.51-27.62,8.05.18.18,8.22,3.08,17.79,6.44,9.61,3.35,17.61,6.26,17.83,6.48s-2.15,7.64-5.72,17.83c-3.35,9.56-6.08,17.65-6.08,17.92,0,.31.27.45.58.31.27-.09,3.26-1.03,6.57-2.01h0ZM757.23,638.66c0-.22-2.68-8.09-5.99-17.52-3.31-9.43-6.08-17.43-6.17-17.74-.09-.4,5.1-2.46,16.85-6.57,19.71-6.88,19.62-6.88,19.35-7.2-.49-.49-18.01-5.27-30.97-8.45-46.97-11.58-94.26-18.95-140.57-21.9l-4.25-.27-6.53,4.87c-19.71,14.66-43.98,28.6-65.48,37.59-8.49,3.58-32.18,14.93-31.55,15.15.27.09,4.07-.36,8.45-.98,27-3.89,42.86-4.96,71.87-4.96,23.73,0,29.01.31,50.73,2.73,38.62,4.29,84.65,13.54,116.43,23.38,8,2.46,7.82,2.41,7.82,1.88h0ZM305.81,590.17c66.46-21.77,147-19.71,209.98,5.41,2.86,1.12,5.54,2.06,5.9,2.01,2.68-.13,29.72-13.05,41.12-19.62,11.04-6.39,32.14-20.25,32.18-21.19,0-.13-.76-.58-1.65-.98-.94-.36-4.51-1.97-7.96-3.58-21.99-10.15-50.91-19.62-78.75-25.79-90.82-20.07-191.61-12.6-272.69,20.29-8.36,3.4-22.44,9.7-22.44,10.06,0,.67,17.07,12.25,25.92,17.57,12.25,7.33,28.83,15.78,41.03,20.83l6.39,2.64,6.03-2.37c3.35-1.3,10.06-3.71,14.93-5.27h0ZM215.52,545.92c4.56-2.1,11.8-5.18,16.09-6.93,4.29-1.74,7.78-3.4,7.69-3.71-.31-1.12-4.51-6.17-8.13-9.74-11.35-11.22-25.52-17.3-43.8-18.82-5.94-.49-12.65-.45-13.19.13-.54.54,2.41,9.03,4.92,14.08,4.11,8.36,9.92,16,15.87,20.96,3.26,2.73,10.91,7.78,11.8,7.78.27,0,4.2-1.7,8.76-3.75ZM600.04,546.14c11.71-7.87,20.47-19.84,25.34-34.59.8-2.41,1.34-4.51,1.16-4.69-.58-.58-7.24-.63-13.23-.13-18.55,1.56-32.63,7.69-44.25,19.26-3.84,3.89-7.11,7.87-6.66,8.18.09.09,2.99,1.21,6.44,2.5,7.51,2.86,20.74,8.49,24.27,10.32,1.39.72,2.82,1.3,3.13,1.34.31,0,2.01-.98,3.8-2.19h0ZM253.83,530.86c6.79-2.23,6.84-2.28,6.84-3.58,0-2.15-.76-2.99-3.71-4.38-15.96-7.29-29.1-21.63-34.95-38.13l-1.21-3.44-3.66-1.39c-1.97-.76-5.94-1.97-8.8-2.68-4.56-1.12-6.97-1.52-13.94-2.46l-1.65-.22.27,1.88c.98,7.42,3.22,15.11,6.21,21.68,1.61,3.53,1.79,3.71,3.53,4.16,16.63,4.2,31.38,14.21,41.16,27.93,1.16,1.61,2.32,2.91,2.59,2.91.31,0,3.62-1.03,7.33-2.28h0ZM557.49,529.25c10.01-13.41,24.14-22.84,40.45-26.95,1.74-.4,1.92-.63,3.44-3.93,3.13-6.84,5.32-14.48,6.3-21.9l.27-1.88-1.65.22c-6.97.94-9.39,1.34-14.03,2.5-2.91.72-6.88,1.88-8.8,2.64l-3.53,1.34-1.47,3.93c-6.21,16.49-18.19,29.68-33.79,37.23-2.64,1.3-3.98,2.19-4.34,2.99-.45.94-.4,1.16.13,1.39,2.68.89,14.57,4.87,14.79,4.92.18.04,1.16-1.12,2.23-2.5h0ZM273.85,521.65c-2.28-5.32-5.1-15.78-5.14-18.91,0-2.64,1.61-4.56,4.6-5.54.72-.22.22-.85-2.59-3.49-6.21-5.81-11.93-14.03-15.24-21.9-1.56-3.8-1.88-4.16-4.16-5.63-5.23-3.35-13.54-6.88-21.68-9.21-5.68-1.65-5.63-1.65-5.63,1.43.04,9.74,2.59,21.1,6.7,29.95,5.27,11.26,15.33,21.5,26.82,27.35,2.77,1.43,15.46,6.61,16.27,6.66.18.04.22-.31.04-.72h0ZM289.36,520.62c4.02-.98,11.8-2.73,17.34-3.84,5.5-1.12,10.1-2.1,10.19-2.15.27-.31-7.96-4.29-11.98-5.77-7.37-2.73-18.59-4.78-26.19-4.78h-2.99l.31,1.7c.67,4.38,4.87,16.63,5.68,16.63.18,0,3.62-.8,7.64-1.79ZM533.22,520c11.8-4.6,18.37-8.67,25.34-15.64,10.19-10.28,16-23.11,17.65-39.15.22-2.32.45-5.41.45-6.79,0-3.08.04-3.08-5.63-1.43-8.13,2.32-16.45,5.86-21.68,9.21-2.28,1.43-2.59,1.88-4.11,5.45-3.44,8.13-9.25,16.54-15.55,22.35-2.64,2.41-3.04,2.99-2.37,3.22,3.44,1.07,4.83,3.22,4.42,6.88-.31,3.08-2.5,11.35-4.02,15.15-1.21,3.08-1.21,3.17-.94,3.17.13,0,2.99-1.07,6.44-2.41h0ZM521.24,517.45c1.43-3.75,3.58-11.26,3.58-12.56,0-.72-.45-.8-3.31-.8-4.47,0-12.43,1.07-18.06,2.46-7.15,1.74-19.67,6.97-17.97,7.51.36.13,4.11.85,8.27,1.61,4.2.76,11.44,2.28,16.09,3.35,4.69,1.07,8.85,1.97,9.25,2.01.54.04,1.12-.94,2.15-3.58ZM344.24,510.79c4.29-.49,8.67-1.03,9.7-1.16l1.88-.22-.22-1.88c-.31-2.59.89-4.38,4.51-6.66,1.61-1.03,2.91-2.01,2.91-2.19,0-.76-5.45-7.11-8.72-10.15-12.25-11.44-30.12-17.97-49.12-17.97h-4.2l.58,2.59c.94,3.93,3.22,10.19,5.36,14.62,4.2,8.67,11.04,17.21,18.06,22.48l3.49,2.64,3.98-.58c2.19-.31,7.51-1.03,11.8-1.52h0ZM476.63,509.49c10.82-8.63,19.44-22.75,22.66-37.19l.4-1.74h-4.2c-19.31,0-37.14,6.61-49.61,18.41-4.29,4.11-9.83,11.22-12.38,15.96l-1.7,3.17h1.12c4.07,0,37.72,3.4,38.21,3.84.72.67,2.68-.18,5.5-2.46h0ZM383.35,507.66c4.92-.22,14.17-.45,20.6-.45,7.96,0,13.19-.22,16.49-.67,2.68-.4,4.92-.76,4.96-.8.04-.04.72-1.3,1.56-2.77.8-1.47,1.83-3.22,2.28-3.89.45-.63.8-1.25.8-1.39,0-.36-8.49-2.95-12.07-3.66-5.54-1.12-15.46-1.34-21.41-.49-6.08.89-13.63,3.13-19.67,5.81-4.6,2.06-13.9,7.29-13.9,7.82,0,.18.27.58.58.89.4.45,1.74.54,5.68.31,2.82-.18,9.16-.49,14.08-.72h0ZM167.25,503.5c0-1.34,2.64-3.13,5.01-3.49,3.13-.45,12.65-.45,16.89,0,1.83.18,3.4.31,3.49.27.09-.09-.36-1.3-.94-2.73-3.13-7.51-5.77-18.86-5.63-24.18.09-2.68.04-2.82-2.55-6.44-2.73-3.84-9.97-11.49-13.68-14.44l-2.1-1.65-4.6,2.73c-5.1,3.04-17.03,9.12-21.01,10.73-1.43.58-2.59,1.3-2.59,1.61s.72,2.64,1.61,5.18c4.07,11.84,11.53,22.35,21.41,30.17,3.53,2.82,4.69,3.35,4.69,2.23h0ZM637.71,501.58c7.37-5.63,15.02-15.11,19-23.6,1.74-3.8,4.42-11.04,4.42-12.11,0-.27-1.16-.98-2.55-1.56-4.34-1.74-15.46-7.42-20.69-10.55l-4.96-2.91-3.08,2.5c-4.16,3.4-9.48,9.07-12.65,13.5l-2.55,3.58-.18,4.2c-.27,6.39-2.55,15.91-5.5,22.93-.58,1.43-1.03,2.64-.94,2.68.09.09,1.74-.04,3.71-.22,4.56-.45,13.59-.45,16.67,0,2.37.36,5.01,2.15,5.01,3.49,0,1.07,1.03.63,4.29-1.92ZM307.51,501.76c-5.14-7.87-6.84-11-9.48-17.7-2.01-5.1-3.84-12.07-3.84-14.57s1.34-4.51,3.31-5.23c.89-.31,1.61-.72,1.61-.89,0-.63-3.8-5.18-6.97-8.31-7.73-7.69-18.33-13.9-30.71-18.01-2.41-.76-4.51-1.3-4.69-1.12-.63.63-.22,14.26.54,18.41,1.65,9.3,5.32,18.37,10.19,25.52,3.35,4.87,10.01,11.4,15.33,14.93,4.2,2.82,4.69,3.04,8.72,3.71,4.92.8,9.88,2.06,13.41,3.31,3.17,1.12,3.35,1.12,2.59-.04h0ZM495.58,501.85c3.8-1.34,8.72-2.55,13.59-3.35,4.02-.67,4.51-.89,8.72-3.71,16.63-11.08,26.24-29.9,26.33-51.58.04-3.84-.09-7.11-.27-7.29-.18-.18-2.28.36-4.69,1.12-12.38,4.11-22.97,10.32-30.71,18.01-3.17,3.13-6.97,7.69-6.97,8.31,0,.18.72.58,1.61.89,1.97.72,3.31,2.82,3.31,5.23s-1.83,9.48-3.84,14.57c-2.64,6.7-4.34,9.83-9.48,17.7-.76,1.21-.85,1.21,2.41.09h0ZM373.34,493.63c15.87-7.42,32.99-9.3,49.16-5.36,2.41.58,6.03,1.7,8,2.46l3.62,1.39.98-1.3c.54-.67,1.74-2.1,2.73-3.17l1.74-1.88-1.61-6.61c-7.55-30.75-18.95-112.05-31.82-226.87-1.34-12.02-2.55-21.95-2.68-22.08-.13-.13-.22,0-.22.31,0,.85-3.71,33.25-6.3,54.8-13.23,111.34-24,181.91-30.66,201.44l-1.16,3.4,1.97,2.73c1.07,1.47,1.97,2.73,2.01,2.73s1.92-.89,4.25-1.97h0ZM218.52,471.59c-.85-5.32-1.3-10.86-1.12-14.79.13-4.96.76-6.39,3.31-7.69.72-.36,1.39-.72,1.47-.76.09-.04-.94-1.79-2.32-3.8-2.77-4.16-6.21-10.95-7.33-14.62-.63-1.88-1.52-3.22-4.07-5.94l-3.31-3.49-5.41,5.1c-6.66,6.21-12.16,10.95-17.61,15.11-2.32,1.74-4.16,3.49-4.16,3.89,0,2.15,2.01,6.66,3.8,8.54,3.22,3.44,6.75,7.78,9.12,11.35,1.3,1.88,2.55,3.4,2.86,3.4,3.66.04,16.67,2.64,21.19,4.25,1.65.58,3.22,1.07,3.44,1.07.22.04.27-.72.13-1.61h0ZM587.03,471.73c4.51-1.39,10.82-2.68,16.22-3.35,4.51-.58,3.8-.04,8.18-6.21,1.43-2.06,4.16-5.36,5.99-7.42,2.91-3.13,3.53-4.16,4.34-6.7.54-1.7.94-3.31.94-3.62s-1.52-1.7-3.35-3.08c-5.36-4.07-12.07-9.74-18.19-15.51l-5.63-5.32-3.31,3.49c-2.55,2.73-3.44,4.07-4.07,5.94-1.12,3.66-4.56,10.46-7.33,14.62-1.39,2.01-2.41,3.75-2.32,3.8s.76.4,1.47.76c2.5,1.3,3.17,2.77,3.31,7.37.18,3.8-.31,10.19-1.12,15.11-.22,1.56-.18,1.74.45,1.52.4-.13,2.41-.8,4.42-1.39h0ZM345.94,463.64c14.03-42.19,24.36-94.49,31.11-157.55,3.66-33.97,5.18-54.26,5.63-74.64.36-18.06.58-19.35,2.91-20.38.72-.31,1.03-.58.58-.63-1.43,0-9.56-4.47-12.29-6.7-7.55-6.12-13.1-17.12-13.1-25.88v-2.73h42.15l-1.74-1.25c-10.73-7.78-11-24.58-.76-46.26,1.39-2.86,2.64-5.23,2.82-5.23.4,0,4.07,7.78,6.03,12.87,3.35,8.67,5.01,19.31,3.89,25.12-1.12,6.03-4.07,10.91-8.05,13.45l-2.06,1.3h42.77l-.27,3.98c-.58,9.21-5.86,19-13.36,24.85-3.08,2.41-10.5,6.48-11.93,6.48-.4.04-.09.31.72.67,2.28.98,2.46,2.23,2.82,20.78.36,16.89.89,25.3,2.95,47.82,5.45,59.89,12.02,102.08,22.3,143.7,5.68,23.02,12.87,46.57,14.12,46.39.36-.04,2.68-.8,5.14-1.65,5.81-1.97,12.16-3.26,19.26-3.98l5.59-.54,2.15-3.13c8.13-11.98,20.96-21.77,36.47-27.89l3.58-1.43,1.21-3.89c1.56-4.96,5.41-12.92,8.4-17.39,5.01-7.55,10.55-13.27,18.5-19.26,2.46-1.83,4.42-3.58,4.34-3.8-.09-.27-.49-.98-.94-1.61-1.61-2.28-1.56-2.86,1.12-8.85,7.15-16.13,13.59-36.52,16-50.64,2.1-12.16,2.91-20.74,2.99-31.42.04-6.79.04-7.06,1.12-8.31.63-.72,1.7-1.47,2.46-1.61,1.03-.22,1.3-.49,1.03-1.03-1.3-2.99-3.89-11.4-4.69-15.29-1.39-6.39-1.47-19.8-.27-26.73l.85-4.6-3.4-3.53c-4.92-5.14-8.8-10.59-12.11-17.03-4.47-8.72-7.06-17.48-8.22-27.89l-.45-4.02-4.65-4.69c-7.64-7.78-12.96-15.69-16.85-25.34l-1.97-4.83-5.63-2.82c-7.24-3.62-12.92-7.69-18.82-13.5-4.34-4.29-10.68-12.16-12.25-15.2-.58-1.12-.89-1.25-4.11-1.52-18.5-1.65-36.52-10.64-49.92-24.85l-3.04-3.26-10.86,3.67c-5.99,1.97-11.17,3.62-11.53,3.62-.4,0-2.15,1.12-3.98,2.5-6.08,4.6-11,6.3-16.89,5.86-3.84-.31-7.46-1.47-11.35-3.58-1.52-.85-4.42-1.97-6.53-2.5-6.44-1.7-12.34-3.53-21.54-6.61l-8.8-2.99-2.95,3.22c-13.01,14.03-31.47,23.29-49.97,24.94-3.35.31-3.49.36-4.42,1.92-4.2,6.93-12.51,16.13-19.13,21.14-4.07,3.08-9.83,6.57-14.08,8.45l-3.13,1.43-2.01,4.87c-3.84,9.52-9.25,17.7-16.85,25.39l-4.65,4.69-.45,4.02c-1.97,17.65-8.89,32.9-20.34,44.92l-3.4,3.58.8,4.78c1.25,7.15,1.16,20.11-.22,26.5-.8,3.89-3.4,12.29-4.69,15.29-.27.54,0,.8,1.03,1.03.76.13,1.83.89,2.46,1.61,1.07,1.25,1.12,1.52,1.12,8.72.09,11.22,1.61,25.25,4.02,36.92,2.41,11.67,9.12,31.69,15.06,44.96,2.59,5.77,2.64,6.3,1.03,8.63-.45.63-.85,1.34-.94,1.61s1.56,1.74,3.66,3.26c13.5,10.01,23.15,23.02,27.58,37.19l1.21,3.89,3.58,1.43c15.42,6.08,27.71,15.42,36.2,27.58l2.46,3.49,5.72.54c9.65.94,18.77,3.26,25.83,6.57,1.74.8,3.35,1.43,3.58,1.39.27-.04,1.7-3.89,3.26-8.54h0ZM138.56,457.11c12.65-5.41,25.3-12.78,37.41-21.86,17.12-12.83,35.93-32.54,49.34-51.76l1.03-1.47-2.23-5.23c-2.86-6.7-4.96-12.25-8.09-21.68l-2.55-7.55-3.17,3.93c-14.39,18.01-41.07,36.43-71.33,49.39-7.2,3.08-18.55,7.02-23.6,8.22l-3.44.8,1.03,2.95c2.68,7.78,8.54,21.68,13.99,33.34,5.23,11.26,6.03,12.74,6.7,12.74.31,0,2.55-.85,4.92-1.83h0ZM670.74,452.6c6.7-14.08,12.92-28.56,16.58-38.62l1.43-4.07-3.4-.8c-5.1-1.21-16.45-5.14-23.64-8.22-30.3-12.96-57.7-31.91-71.51-49.57-1.61-2.06-2.99-3.66-3.04-3.58-.09.09-1.07,3.04-2.23,6.61-2.73,8.31-5.5,15.87-8.36,22.44l-2.23,5.23,1.03,1.47c7.96,11.4,16.67,21.63,27.85,32.76,13.14,13.1,23.73,21.54,37.59,29.86,8.72,5.27,24.14,12.78,26.19,12.83.49,0,1.7-2.06,3.75-6.35h0ZM250.56,454.83c-.8-4.42-1.3-14.97-.85-19.35.31-3.31.45-3.66,2.01-5.23,1.47-1.47,1.97-1.7,3.75-1.7h2.06l-1.16-2.99c-1.56-4.25-4.69-9.97-7.69-14.17-4.29-5.94-12.47-13.68-18.91-17.88l-1.21-.76-3.58,4.6c-1.97,2.55-4.87,6.21-6.53,8.18-2.82,3.35-2.95,3.66-2.95,5.86,0,1.25.31,4.07.67,6.26,2.01,11.62,7.02,21.86,14.75,30.04,3.13,3.31,3.58,3.62,7.24,4.96,2.15.76,5.86,2.28,8.18,3.35,2.32,1.07,4.38,1.97,4.51,2.01.13.04,0-1.43-.31-3.17h0ZM554.04,456.04c2.37-1.12,6.08-2.64,8.22-3.35,3.17-1.12,4.34-1.79,6.26-3.71,9.12-8.85,15.64-23.15,16.45-35.85l.27-4.02-2.99-3.58c-1.7-1.97-4.65-5.63-6.61-8.18l-3.53-4.6-1.21.76c-8.49,5.36-17.92,15.24-22.71,23.78-1.47,2.59-5.05,10.46-5.05,11.04,0,.13.89.22,2.01.22,2.99,0,4.96,1.97,5.63,5.59.63,3.26.22,16-.67,20.69-.31,1.74-.54,3.22-.49,3.22s2.06-.89,4.42-2.01h0ZM117.64,400.12c4.56-1.3,12.2-4.07,17.12-6.12,1.52-.67,1.65-.85,1.65-2.55,0-1.03-.67-3.93-1.52-6.39-2.23-6.53-2.95-10.46-3.26-17.16l-.27-5.94h-5.18c-5.72,0-13.14-.58-21.23-1.61-2.91-.36-5.41-.54-5.54-.45-.09.13-.18,3.4-.18,7.29,0,7.78.85,13.19,2.99,19.58,1.25,3.71,4.29,10.19,6.39,13.5,1.39,2.23.85,2.23,9.03-.13h0ZM692.06,400.26c2.06-3.26,5.14-9.79,6.39-13.5,2.19-6.44,2.99-11.84,3.04-19.58,0-3.84-.09-7.15-.22-7.24-.13-.13-2.64.04-5.54.45-7.55.94-16.05,1.56-21.63,1.56h-4.78l-.27,5.94c-.27,6.39-1.56,12.96-3.62,18.41-.8,2.1-1.16,3.8-1.07,5.1l.13,2.01,4.2,1.7c6.12,2.46,19.62,6.84,21.72,7.02.27.04.98-.8,1.65-1.88h0ZM163.94,379.25c5.1-3.04,9.74-5.94,10.86-6.84.27-.22-2.5-6.79-4.11-9.79-1.7-3.13-.72-2.99-11.49-1.83-3.8.4-10.1.85-14.03,1.03l-7.11.27.27,5.18c.27,5.99,1.16,10.59,3.08,16.09.76,2.1,1.56,4.47,1.83,5.27l.49,1.39,6.97-3.49c3.8-1.92,9.74-5.23,13.23-7.29h0ZM657.29,388.41c2.73-5.27,4.74-13.45,5.05-20.69l.27-5.63-7.11-.27c-3.93-.18-10.24-.63-14.03-1.07-10.59-1.16-9.79-1.3-11.49,1.88-.8,1.47-2.06,4.25-2.82,6.21-1.34,3.31-1.34,3.53-.58,4.07,4.38,3.26,28.29,16.72,29.72,16.76.18,0,.63-.58.98-1.25h0ZM183.74,365.89c3.17-2.32,10.15-8.31,11.84-10.15,1.43-1.52,1.12-1.7-1.52-.94-.85.27-4.96,1.16-9.12,2.01s-7.6,1.61-7.73,1.7c-.4.45,3.13,9.25,3.75,9.25.13,0,1.39-.85,2.77-1.88h0ZM620.64,366.56c.94-1.88,2.99-7.82,2.77-8.05-.09-.09-3.08-.76-6.61-1.47-3.49-.67-7.69-1.56-9.21-2.01-1.56-.4-3.08-.63-3.31-.58-.85.31,14.12,13.32,15.33,13.32.22,0,.67-.54,1.03-1.21ZM160.32,352.61c16.27-1.97,27.93-4.29,43.94-8.85,4.34-1.25,7.24-2.32,7.24-2.64s-.4-2.23-.89-4.29c-2.37-9.97-4.29-24.31-4.78-35.09-.13-3.75-.45-6.84-.63-6.84-.22,0-2.95,1.03-6.08,2.28-18.01,7.2-38.88,12.56-59.58,15.33-12.07,1.61-20.34,2.19-32.36,2.23l-10.68.04.27,10.28c.22,8.89,1.34,24.54,1.83,25.97.18.45,8.72,1.65,17.48,2.41,2.46.22,11.62.31,20.34.22,12.74-.09,17.48-.31,23.91-1.07h0ZM693.31,352.57c4.56-.54,8.4-1.12,8.54-1.25.58-.58,1.79-16.49,2.06-26.46l.27-10.06-10.68-.04c-30.93-.13-62.53-6.08-90.37-16.98-4.02-1.56-7.46-2.86-7.64-2.86s-.49,3.08-.63,6.84c-.49,10.77-2.41,25.12-4.78,35.09-.49,2.06-.89,3.98-.89,4.29,0,.54,9.65,3.49,19,5.81,10.55,2.59,25.48,5.1,36.43,6.03,3.08.27,6.39.58,7.37.67s8.85.13,17.43.04c12.69-.09,17.21-.31,23.91-1.12h0ZM126.36,305.82c19.58-1.61,40-5.77,57.88-11.8,9.61-3.26,12.07-4.16,12.07-4.51,0-.13-3.49-1.21-7.69-2.41-25.16-7.06-48.94-16.94-76.97-31.96-4.6-2.5-8.49-4.47-8.54-4.38-.31.31-2.55,12.74-3.58,20.02-1.47,10.59-2.41,20.2-2.77,28.65l-.27,7.06,3.08.18c5.01.27,18.1-.13,26.77-.85h0ZM699.75,306.67l4.42-.27-.31-6.97c-.54-12.56-2.68-30.39-5.27-43.85-.49-2.59-.94-4.78-1.03-4.87s-2.99,1.39-6.39,3.26c-27.71,15.11-53.59,25.97-79.07,33.12-4.25,1.21-7.73,2.32-7.73,2.46,0,.18.67.54,1.47.8.76.27,4.6,1.56,8.45,2.95,16.36,5.77,36.16,10.1,55.56,12.16,5.59.58,13.27,1.07,23.69,1.43.98.04,3.8-.04,6.21-.22h0ZM203.45,278.78c3.49-9.07,4.65-16.31,4.38-26.68-.27-8.58-1.21-13.86-4.02-21.95-1.92-5.72-6.3-15.24-6.97-15.24-.85,0-9.79,9.25-12.65,13.1-7.06,9.43-11.4,19.67-12.87,30.44-.54,3.67-.67,12.34-.22,13.94.18.76,1.56,1.34,7.51,3.26,6.17,1.97,22.21,6.66,23.15,6.7.13.04.94-1.56,1.7-3.58h0ZM606.2,280.39c4.02-1.12,10.86-3.17,15.24-4.56,9.07-2.91,8.4-2.15,8.4-9.25,0-17.16-7.06-33.21-20.43-46.62-6.12-6.08-5.5-6.12-8.63.4-2.95,6.26-5.41,13.27-6.79,19.8-1.39,6.12-1.47,21.63-.22,27.4.94,4.29,4.47,14.84,4.96,14.84.04,0,3.4-.89,7.46-2.01h0ZM163.68,267.2c0-13.68,4.38-27.8,12.34-39.56l2.86-4.29-1.07-5.45c-1.07-5.18-3.49-13.45-4.96-17.03l-.67-1.61-2.73,1.83c-6.48,4.38-13.77,11.31-18.37,17.48-1.65,2.15-1.74,2.41-1.47,4.56.4,3.08-.49,12.92-1.61,18.1s-3.53,12.16-5.63,16.27c-1.21,2.46-1.43,3.22-.94,3.49,1.43.89,21.14,9.3,21.95,9.34.18,0,.31-1.43.31-3.13h0ZM641.87,268.54c5.77-2.28,17.92-7.64,17.92-7.87,0-.13-.67-1.56-1.52-3.26-2.06-4.07-4.47-11.04-5.59-16.27s-2.01-14.88-1.65-18.01c.22-2.15.13-2.46-1.39-4.47-3.04-4.02-7.33-8.58-11.13-11.89-4.29-3.67-8.98-7.06-9.83-7.06-.76,0-4.34,11.13-5.77,17.97l-1.16,5.63,2.73,4.11c8.13,12.07,12.51,25.97,12.51,39.78,0,1.7.09,3.13.22,3.13.09,0,2.19-.8,4.65-1.79h0ZM136.37,254.15c6.39-13.77,7.87-28.69,4.47-44.52-1.39-6.48-6.12-19.76-7.06-19.76-.76,0-8.98,7.2-11.89,10.46-10.37,11.49-16.76,25.74-16.94,37.72l-.04,4.2,4.02,2.23c3.66,2.06,25.3,13.27,25.61,13.32.09,0,.89-1.65,1.83-3.67h0ZM689.29,245.84l6.48-3.53.13-2.55c.18-3.49-.98-9.88-2.86-15.42-3.89-11.71-11.35-22.44-21.5-30.88-2.37-1.97-4.51-3.53-4.74-3.44-1.21.4-5.63,13.27-7.33,21.19-1.03,5.01-1.21,6.79-1.21,14.21,0,6.48.18,9.43.76,12.51,1.07,5.23,3.13,11.62,5.27,16.22l1.7,3.71,8.4-4.25c4.6-2.32,11.31-5.81,14.88-7.78h0ZM213.73,226.22c3.22-3.58,7.69-10.41,9.83-14.97,4.34-9.25,6.26-17.92,6.57-29.63.22-7.2-.31-16-.98-16.67-.4-.4-8.27,2.91-12.43,5.23-12.6,7.11-21.86,16.58-27.58,28.34-3.53,7.24-5.01,12.38-4.34,15.2l.45,2.06,4.07-3.62c6.08-5.36,8.67-6.21,11.71-3.84,1.34,1.07,6.57,11.4,8.49,16.89.72,1.97,1.43,3.58,1.61,3.58.13,0,1.34-1.16,2.59-2.55h0ZM591.36,224.61c1.79-4.96,6.44-14.44,7.78-15.87.49-.54,1.65-1.21,2.55-1.47,2.37-.72,4.65.45,9.65,4.87l4.07,3.62.45-1.88c.31-1.47.22-2.59-.58-5.45-4.34-15.87-15.24-29.23-31.33-38.26-4.29-2.41-12.02-5.63-12.47-5.18-.98.98-1.43,17.48-.58,24,1.43,11.8,4.92,21.41,10.86,30.35,2.77,4.11,7.15,9.43,7.78,9.43.18,0,.98-1.88,1.83-4.16h0ZM159.92,198.64c1.92-1.43,2.68-2.46,4.56-6.26,2.5-5.05,4.56-11.08,5.77-16.81,1.16-5.41,1.12-22.12,0-27.93-.8-3.93-2.99-12.78-3.26-13.14-.27-.31-5.99,3.13-9.56,5.81-10.24,7.55-18.5,18.01-22.79,28.74-1.52,3.71-3.58,11.31-3.58,13.01,0,.98.09.98,1.61.45,2.01-.67,4.34-.22,5.81,1.16,1.88,1.74,6.61,13.9,8.63,22.12l1.03,4.11,4.74-4.78c2.64-2.59,5.81-5.5,7.06-6.48h0ZM653.04,207.89c.22-.94.76-2.91,1.12-4.38,1.74-6.75,6.44-18.33,8.05-19.84,1.47-1.39,3.8-1.83,5.81-1.16,1.52.54,1.61.54,1.61-.45,0-1.7-2.06-9.3-3.58-13.01-4.34-10.91-13.01-21.68-23.33-29.1-3.8-2.77-8.76-5.72-9.03-5.45-.45.45-3.04,11.84-3.62,15.82-.36,2.55-.67,7.6-.67,11.71,0,11.75,2.01,20.78,6.75,30.3,1.92,3.89,2.55,4.74,5.01,6.66,1.52,1.25,4.6,4.07,6.79,6.35,2.23,2.28,4.16,4.16,4.34,4.16.18.04.54-.72.76-1.61h0ZM187.19,187.87c5.05-7.51,11.93-14.44,19.44-19.53l3.49-2.37.04-7.37c0-6.3-.94-17.61-1.47-18.19-.58-.54-11.44,4.74-16.63,8.09-3.62,2.37-10.82,8.18-12.56,10.15-.85.94-.98,1.79-1.21,7.11-.31,7.06-1.56,14.03-3.66,20.29-.85,2.46-1.43,4.6-1.3,4.83.13.18.63.36,1.07.36,1.52,0,3.93,2.59,4.92,5.23.54,1.39,1.07,2.73,1.16,2.91.13.22,1.25-1.56,2.41-3.98,1.21-2.41,3.13-5.77,4.29-7.51h0ZM621.31,196.63c1.03-2.82,3.4-5.41,4.96-5.41.45,0,.94-.18,1.07-.36.09-.18-.49-2.37-1.3-4.83-2.1-6.3-3.35-13.27-3.66-20.29-.27-6.97.04-6.35-5.99-11.4-5.27-4.42-10.73-7.91-17.12-10.95-7.29-3.49-7.24-3.49-7.6-1.7-.72,4.11-1.16,10.28-1.16,16.89l.04,7.37,3.49,2.37c10.19,6.93,18.55,16.45,23.64,26.95,1.16,2.37,2.23,4.25,2.37,4.16s.72-1.34,1.25-2.82h0ZM245.11,164.67c7.69-11.53,11.8-24.14,13.54-41.7.31-3.31.67-3.22-5.5-1.92-12.51,2.55-25.34,8.85-34.19,16.76l-2.5,2.23.63,4.69c.36,2.59.67,7.42.76,10.77l.13,6.12,1.56-.67c8.98-3.8,11.44-4.29,13.72-2.86,2.06,1.3,2.77,2.99,3.31,8.18.27,2.55.58,5.32.72,6.17l.22,1.56,2.46-2.68c1.34-1.47,3.66-4.47,5.14-6.66h0ZM564.1,166.28c.54-5.18,1.25-6.88,3.31-8.18,1.97-1.25,4.51-.89,10.01,1.34,2.46,1.03,4.56,1.83,4.69,1.83s.4-2.55.54-5.68c.31-5.63.94-12.2,1.43-14.48.18-.98-.27-1.52-3.26-4.07-7.15-6.03-14.53-10.19-23.55-13.27-5.01-1.74-14.79-4.02-15.24-3.53-.4.4.72,9.88,1.83,15.55,2.68,13.54,8.98,26.77,16.76,35.49l2.41,2.64.27-1.52c.18-.85.54-3.58.8-6.12h0ZM182.18,146.35c6.53-5.1,15.15-9.97,23.02-13.05,3.75-1.43,4.25-2.06,7.46-8.89,2.5-5.41,4.87-12.92,5.94-18.95.94-5.18,2.01-16.13,1.61-16.49-.4-.4-10.1,2.15-14.26,3.75-16,6.17-28.07,16.63-35.18,30.53-1.61,3.04-1.7,3.44-1.03,3.84,2.37,1.43,2.95,2.37,4.47,7.29.8,2.73,1.92,7.33,2.46,10.15.54,2.82,1.03,5.14,1.12,5.14s2.06-1.47,4.38-3.31h0ZM624.17,143.62c.67-3.31,1.83-7.96,2.55-10.28,1.3-4.02,1.83-4.78,4.2-6.26.67-.4.54-.85-1.03-3.93-4.87-9.43-12.83-18.06-22.21-24.09-2.64-1.7-8.58-4.6-12.56-6.21-3.31-1.3-12.87-3.98-14.3-3.98-.54,0-.63.54-.36,3.49,1.12,13.77,3.26,22.93,7.55,32.05,3.22,6.88,3.75,7.46,7.46,8.89,8,3.13,17.3,8.45,23.42,13.41,1.97,1.56,3.66,2.91,3.8,2.91.13.04.8-2.68,1.47-5.99h0ZM268.53,137.32c11.89-7.46,21.23-18.41,27.93-32.67,2.59-5.54,4.96-12.07,4.47-12.38-.18-.13-3.04-.36-6.35-.54-19.4-.94-37.59,5.36-50.37,17.39-3.53,3.35-8.27,8.8-7.91,9.16.09.09,1.88-.45,4.02-1.21,4.69-1.7,11.31-3.4,16.18-4.11,4.65-.72,6.7-.18,8.49,2.15,1.12,1.47,1.21,1.88,1.12,5.23-.09,4.25-1.21,13.27-2.06,16.94-.45,1.97-.49,2.55-.04,2.55.27,0,2.32-1.12,4.51-2.5h0ZM536.7,138.17c-1.12-6.44-2.06-13.86-2.15-17.34-.13-3.89-.04-4.2,1.12-5.72,1.79-2.32,3.8-2.86,8.49-2.15,4.87.72,11.49,2.41,16.18,4.11,2.15.76,3.93,1.3,4.07,1.21.31-.36-5.23-6.61-8.76-9.88-12.38-11.49-30.66-17.61-49.61-16.67-3.31.18-6.17.45-6.35.63-.72.72,4.25,12.51,8,19.04,4.47,7.87,11.58,16.31,17.79,21.27,3.04,2.41,10.37,7.15,11.08,7.15.27,0,.31-.67.13-1.65h0ZM223.48,122.7c.94-.4,2.23-1.88,4.16-4.78,8.09-12.34,16.89-20.11,29.99-26.37,5.18-2.46,5.41-2.64,6.7-4.96,3.31-5.99,9.21-20.92,8.54-21.59-.58-.58-15.55-.27-20.2.45-13.54,1.97-25.39,6.88-35.18,14.62-2.55,2.01-2.99,2.82-1.39,2.37.54-.13,2.32-.4,3.93-.54,3.44-.36,5.1.36,6.48,2.68,2.19,3.71-.72,25.83-4.69,35.93-.54,1.3-.94,2.46-.94,2.55,0,.4,1.21.22,2.59-.36h0ZM579.79,123.1c0-.09-.49-1.47-1.12-3.08-2.64-7.02-4.47-16.72-5.1-26.77-.49-7.33-.09-9.12,2.41-10.64,1.61-.98,3.4-1.12,6.93-.45,1.3.27,2.46.36,2.59.27.63-.67-8.58-7.06-14.21-9.88-6.93-3.49-14.75-5.86-23.29-7.11-4.65-.72-19.62-1.03-20.2-.45-.36.36,2.77,9.3,5.05,14.53,3.08,6.97,4.87,9.83,6.44,10.37,3.44,1.16,12.07,5.94,15.91,8.85,7.24,5.41,12.69,11.31,17.97,19.35,1.61,2.5,3.04,4.2,3.8,4.56,1.21.54,2.82.8,2.82.45h0ZM309.25,108.04c13.14-2.86,25.52-9.74,35.18-19.58l3.13-3.13-1.34-.49c-4.65-1.79-15.29-6.61-24.18-11-5.68-2.82-10.55-5.1-10.82-5.1-.22,0-2.01.49-3.98,1.12-2.59.8-4.25,1.7-6.39,3.44-4.16,3.35-10.37,7.33-14.35,9.21-1.92.94-3.49,1.74-3.49,1.88s2.82.13,6.3.09c7.82-.22,14.84.54,16.85,1.79,1.79,1.07,2.77,2.91,2.77,5.05,0,1.61-2.55,9.07-4.96,14.35-.72,1.61-1.3,3.04-1.3,3.13,0,.4,2.5.13,6.57-.76h0ZM498,108.85c0-.09-.8-1.97-1.74-4.2-2.68-6.17-4.51-11.62-4.51-13.45,0-2.01,1.34-4.29,2.99-5.18,1.97-.98,9.65-1.7,16.63-1.52,3.49.04,6.3.04,6.26-.09,0-.13-1.61-.98-3.53-1.92-4.02-1.92-10.15-5.86-14.26-9.16-2.15-1.74-3.8-2.64-6.39-3.44-1.97-.63-3.75-1.12-3.98-1.12-.27,0-5.14,2.28-10.82,5.1-8.89,4.38-19.53,9.21-24.18,11l-1.34.49,3.13,3.13c7.55,7.73,17.21,13.86,27.44,17.48,4.78,1.7,14.3,3.62,14.3,2.91h0ZM411.06,94.5c3.93-1.88,10.73-8.89,15.06-15.46,7.64-11.67,14.79-26.73,21.81-45.99,2.95-8.13,5.36-15.55,5.36-16.54,0-.67-3.66-2.41-7.82-3.75-18.28-5.72-54.08-6.61-74.73-1.83-7.15,1.65-15.96,5.23-16.54,6.66-.49,1.39,4.38,16.94,8.89,28.16,11.08,27.53,23.38,44.7,35.44,49.25,3.89,1.47,8.8,1.3,12.51-.49h0ZM376.43,87.3c0-.09-1.47-2.37-3.31-5.01-6.61-9.7-12.11-20.38-17.43-33.74-4.74-11.98-9.48-27.26-9.79-31.51-.13-1.83-.04-1.83-8.45-.31-12.83,2.32-31.51,7.55-42.82,12.02-4.78,1.88-14.57,6.48-15.78,7.46-.8.58-.67.8,2.01,3.08,17.7,15.38,51.31,33.07,85.5,44.92,9.52,3.31,10.06,3.49,10.06,3.08h0ZM437.3,83.24c30.39-10.55,64.72-28.74,81.7-43.31,4.2-3.62,4.34-3.13-1.97-6.3-11.71-5.94-31.73-12.43-49.43-16.05-6.39-1.3-6.26-1.3-6.26-.54,0,1.07-4.47,14.66-7.46,22.66-6.57,17.52-14.21,33.25-21.32,43.94-.45.67-.63,1.21-.36,1.21.22,0,2.55-.72,5.1-1.61h0ZM284.49,75.37c2.41-1.25,5.94-3.35,7.82-4.74,3.75-2.64,9.03-7.15,9.03-7.64,0-.18-.85-.8-1.88-1.39-7.11-3.98-21.05-14.17-26.15-19.08l-2.28-2.23-3.13,1.21c-4.29,1.65-9.52,4.51-13.5,7.42-4.07,2.91-11.08,9.34-10.64,9.79.13.13,2.86-.18,6.03-.72,4.78-.89,7.33-1.03,15.55-1.03,9.12-.04,9.97.04,11.93.94,2.59,1.16,3.93,3.17,3.93,5.81,0,1.07-.89,4.47-2.06,7.82-1.12,3.26-2.15,6.3-2.28,6.7-.22.76-.13.76,1.47.09.98-.4,3.71-1.74,6.12-2.95h0ZM523.65,77.83c-1.52-3.58-4.16-12.34-4.2-13.99,0-2.77,1.3-4.74,3.93-5.94,1.97-.89,2.82-.98,11.93-.94,8.22,0,10.77.13,15.55,1.03,3.17.54,5.9.85,6.03.72.4-.45-5.5-5.9-10.06-9.34-4.11-3.08-9.48-6.08-14.17-7.91l-3.04-1.16-2.32,2.19c-5.05,4.96-18.68,14.88-26.5,19.4-.8.45-1.47.94-1.47,1.12,0,.4,4.87,4.65,8.05,7.02,3.35,2.46,8.98,5.77,12.51,7.29,3.44,1.52,4.25,1.61,3.75.54h0Z"/>
    <path class="cls-11" d="M75.18,604.25c-1.56-6.3-2.91-11.67-2.99-11.98-.22-.63,4.69-1.74,5.23-1.16.63.67,5.9,23.02,5.54,23.38-.22.18-1.43.54-2.68.76l-2.23.4-2.86-11.4Z"/>
    <path class="cls-11" d="M87.78,601.66c-1.52-6.35-2.77-11.75-2.77-12.02s1.34-.72,3.04-1.03l2.99-.49,4.11,4.34c2.28,2.41,5.32,5.81,6.7,7.6,1.39,1.79,2.64,3.13,2.73,3.04s-.22-1.43-.76-2.99c-.49-1.56-1.52-5.23-2.23-8.18-1.43-5.99-1.52-5.77,1.92-6.12l1.7-.13,2.86,11.62c1.56,6.39,2.82,11.75,2.86,11.89,0,.18-1.25.54-2.77.8l-2.82.49-2.82-2.99c-2.64-2.86-8.05-9.03-10.5-11.98-1.07-1.25-.98-.89,1.16,7.51,1.34,5.27,2.1,8.98,1.83,9.21-.22.22-1.3.54-2.41.67l-2.06.31-2.77-11.53h0Z"/>
    <path class="cls-11" d="M118.09,607.82c0-.13-1.21-5.41-2.68-11.67-1.43-6.26-2.5-11.53-2.32-11.71.72-.67,5.99-1.74,9.97-2.01,6.97-.4,10.46,1.3,13.01,6.44,1.16,2.41,1.39,3.4,1.43,6.08,0,6.26-3.62,10.1-11.13,11.89-2.86.67-8.27,1.3-8.27.98ZM128.1,601.79c2.5-1.34,3.53-3.31,3.53-6.61-.04-3.49-1.52-6.44-3.98-7.87-1.47-.85-2.19-.98-4.78-.85-1.7.13-3.26.4-3.49.63-.27.27.27,3.31,1.39,8.09.98,4.25,1.79,7.82,1.79,7.96,0,.54,3.89-.4,5.54-1.34Z"/>
    <path class="cls-11" d="M143.65,592.22c-1.34-6.08-2.5-11.49-2.64-11.98-.18-.89.04-1.03,2.41-1.43,1.43-.22,2.64-.4,2.73-.31.04.04,1.3,5.41,2.68,11.89,2.91,13.14,2.99,12.11-.8,12.6l-2.01.27-2.37-11.04h0Z"/>
    <path class="cls-11" d="M156.97,600.76c0-.45.63-6.17,1.43-12.74l1.43-11.89,2.91-.31c1.61-.13,3.26-.36,3.62-.49.54-.13,2.28,2.77,6.7,11.08,3.31,6.17,6.08,11.4,6.17,11.58.09.18-.63.49-1.56.63s-2.23.36-2.86.45c-1.03.13-1.34-.18-2.77-2.86l-1.61-2.99-3.49.45c-1.92.22-3.62.63-3.8.89s-.36,1.3-.36,2.28c0,3.08-.36,3.75-2.19,4.02-.89.18-2.06.36-2.59.49-.76.13-1.03,0-1.03-.58h0ZM168.5,589.23c.13-.13-.8-2.37-2.06-5.01-1.3-2.59-2.41-4.65-2.5-4.56-.09.09-.27,2.5-.45,5.36l-.31,5.18,2.55-.36c1.39-.18,2.64-.45,2.77-.63Z"/>
    <path class="cls-11" d="M184.68,597.63c0-.22-.63-5.59-1.34-11.98-.72-6.35-1.21-11.67-1.12-11.75.09-.13,1.56-.31,3.22-.4l3.04-.22,4.11,5.72c2.23,3.17,4.74,6.93,5.59,8.31.8,1.43,1.61,2.59,1.74,2.59s0-1.47-.31-3.22c-.31-1.79-.85-5.63-1.21-8.49l-.58-5.23,2.37-.31c1.34-.13,2.46-.22,2.55-.13s.72,5.01,1.34,10.91c.67,5.9,1.3,11.4,1.43,12.2l.27,1.43h-6.12l-3.84-5.5c-2.15-2.99-4.83-6.93-5.94-8.67-2.1-3.22-2.77-3.98-2.32-2.46.31,1.03,2.06,14.75,2.06,16.31,0,1.16-.09,1.21-2.46,1.21-1.34,0-2.46-.13-2.46-.31h0Z"/>
    <path class="cls-11" d="M720.49,613.23c-3.84-1.16-7.11-2.23-7.29-2.37-.18-.22,7.91-21.9,8.49-22.62.09-.18,14.21,3.93,14.48,4.16.45.45-1.03,3.75-1.7,3.75-.4,0-2.32-.49-4.29-1.12-1.97-.63-3.89-1.12-4.25-1.12-.63,0-2.55,4.29-2.1,4.74.09.09,1.97.72,4.16,1.34,2.19.67,4.07,1.25,4.16,1.34.36.31-.98,3.75-1.52,3.75-.27,0-2.23-.49-4.38-1.12s-4.11-1.03-4.29-.89c-.22.13-.72,1.07-1.07,2.15-.36,1.03-.8,2.19-.94,2.59-.27.58.54.94,4.47,2.01,2.59.72,4.83,1.52,4.96,1.79.22.58-1.12,3.75-1.56,3.71-.18,0-3.49-.98-7.33-2.1h0Z"/>
    <path class="cls-11" d="M703.95,609.52c-8.09-1.16-12.34-6.3-10.95-13.19,1.3-6.26,5.9-10.46,12.38-11.22,3.13-.36,9.03.94,10.64,2.32.09.09-.36.94-.98,1.97l-1.16,1.79-1.88-.85c-2.23-1.03-6.03-1.16-8.09-.27-4.29,1.79-6.61,8.36-4.2,11.89,1.47,2.23,3.49,3.22,7.06,3.49l3.08.22v1.88c0,1.79-.09,1.92-1.39,2.19-.76.13-1.52.22-1.7.22-.13-.04-1.43-.22-2.82-.45h0Z"/>
    <path class="cls-11" d="M682.27,605.68l-1.88-.18-2.68-8.13c-1.43-4.47-2.77-8.8-2.95-9.61-.18-.8-.4-1.43-.49-1.34-.09.13-.58,2.19-1.07,4.65-.49,2.41-1.34,6.3-1.83,8.58l-.94,4.11-1.65-.04c-3.8-.09-3.75.8-.8-12.25,1.43-6.39,2.68-11.67,2.73-11.71s1.52.13,3.26.4l3.22.45,1.3,3.66c2.1,5.77,4.11,12.29,4.11,13.23,0,1.97.8.72,1.07-1.65.18-1.43.85-5.1,1.56-8.18l1.25-5.59,2.41.13c1.34.09,2.46.22,2.55.31s-1.03,5.32-2.46,11.71c-2.95,12.92-2.32,11.84-6.7,11.44h0Z"/>
    <path class="cls-11" d="M652.42,601.83c-3.93-.45-7.2-.89-7.29-.98-.18-.13,4.74-23.06,5.01-23.33.22-.22,11.71.98,14.21,1.47,1.07.22,1.21.4.98,1.43-.67,2.99-.58,2.91-2.82,2.59-1.12-.13-3.4-.4-5.01-.54l-2.91-.31-.45,2.5c-.54,2.91-.76,2.73,4.56,3.26,4.2.36,4.42.54,3.89,2.68-.45,1.97-.13,1.88-6.21,1.3l-3.62-.31-.54,2.01c-.94,3.84-1.03,3.71,4.11,4.34,5.59.63,5.81.72,5.54,1.65-.13.45-.36,1.34-.49,2.06-.18.76-.54,1.21-1.07,1.16-.4-.04-3.98-.49-7.91-.98h0Z"/>
    <path class="cls-11" d="M635.3,599.87c-.85-.18-.98-.4-.76-1.61.18-.8,1.12-6.03,2.19-11.71l1.88-10.28,2.64.13c1.47.09,2.73.22,2.82.31.09.04-.8,5.36-2.01,11.8l-2.1,11.67-1.83-.04c-.98-.04-2.23-.18-2.82-.27h0Z"/>
    <path class="cls-11" d="M622.03,599.29c-6.53-.98-10.01-4.65-10.06-10.55,0-3.98,1.07-6.7,3.8-9.39,3.04-3.04,6.12-4.2,11.08-4.2,2.01,0,4.42.22,5.32.45l1.65.49-.8,1.88c-.63,1.39-1.07,1.83-1.65,1.74-6.26-.89-8.89-.36-11.31,2.41-2.41,2.73-2.91,7.46-1.07,9.97,1.88,2.46,3.04,2.95,7.29,2.95h3.93l.27,1.3c.45,2.1.31,2.41-.94,2.68-2.77.49-5.41.58-7.51.27Z"/>
    <path class="cls-11" d="M592.21,598.75c-1.88-.49-1.92-.63-1.16-3.08.36-1.3.72-1.7,1.21-1.52,4.02,1.25,7.87,1.12,9.39-.31,2.01-1.88.98-3.22-3.98-5.23-5.86-2.37-7.73-5.77-5.23-9.48,2.55-3.75,8.45-5.45,13.86-3.93q1.79.49.72,3.44c-.36.94-.58.98-2.06.67-4.51-.94-7.73.04-7.73,2.41,0,1.12.13,1.21,6.61,3.93,2.15.89,3.98,2.82,4.38,4.56.45,1.74-.67,4.65-2.37,6.26-.85.8-2.55,1.74-3.8,2.15-2.55.76-7.29.8-9.83.13h0Z"/>
    <path class="cls-11" d="M279.03,579.08c-.22-.58-2.19-5.63-4.42-11.31-2.23-5.63-4.11-10.55-4.2-10.86-.13-.63,3.84-2.5,4.69-2.19.22.04,2.5,5.36,5.05,11.75l4.56,11.58-2.06.98c-2.68,1.25-3.17,1.25-3.62.04h0Z"/>
    <path class="cls-11" d="M512.52,576c-1.21-.49-2.28-.98-2.37-1.07-.18-.13,8.4-23.15,8.8-23.6.31-.31,13.32,4.34,14.08,5.05.4.4-.45,3.4-1.07,3.8-.22.13-2.32-.49-4.69-1.39s-4.42-1.47-4.6-1.3c-.4.4-1.88,4.34-1.88,5.05,0,.31.54.76,1.25,1.03.67.22,2.55.94,4.2,1.56l2.99,1.12-.76,2.01c-.4,1.07-.89,1.97-1.07,1.97s-2.15-.67-4.38-1.52c-4.65-1.74-3.98-2.19-6.3,4.11-.8,2.23-1.61,4.11-1.74,4.07-.13,0-1.21-.4-2.46-.89h0Z"/>
    <path class="cls-11" d="M290.88,574.84c-.13-.45-1.74-5.86-3.58-12.07-1.88-6.17-3.4-11.35-3.4-11.49s1.47-.67,3.22-1.21l3.26-.94,7.29,7.46c4.02,4.07,7.24,7.2,7.11,6.84-.85-2.06-5.23-15.82-5.23-16.49,0-.54.63-.89,2.28-1.3,1.21-.31,2.28-.49,2.37-.4.09.09,1.7,5.41,3.62,11.75,1.88,6.39,3.53,11.84,3.66,12.11.13.36-.85.85-2.82,1.39l-2.95.8-7.6-7.69c-4.2-4.2-7.51-7.33-7.37-6.88.09.4,1.34,4.47,2.77,8.98,1.39,4.51,2.37,8.31,2.15,8.49-.31.31-3.71,1.39-4.29,1.39-.13,0-.36-.36-.49-.76h0Z"/>
    <path class="cls-11" d="M491.69,570.01c-2.59-.85-6.08-3.89-7.15-6.26-1.83-4.02-.72-10.91,2.46-15.06,5.59-7.37,18.5-5.01,21.05,3.84,1.79,6.12-1.07,13.54-6.3,16.63-2.5,1.47-6.97,1.83-10.06.85ZM497.86,565.45c2.01-.94,3.49-3.22,4.38-6.79,1.52-5.86-.76-9.88-5.54-9.88-3.58,0-6.7,4.2-7.11,9.39-.22,3.62.58,5.86,2.68,7.15,1.79,1.07,3.53,1.12,5.59.13h0Z"/>
    <path class="cls-11" d="M317.56,567.28c-.36-.13-.58-1.16-.58-2.55v-2.32l3.66.13c3.08.09,3.93-.04,5.18-.8,1.16-.72,1.43-1.16,1.43-2.46,0-1.83-1.21-2.64-4.69-3.13-7.11-1.03-10.55-5.23-8.36-10.19,1.56-3.53,5.72-5.68,11.04-5.68h2.91v4.74l-1.56-.18c-4.11-.49-7.37.98-7.37,3.26,0,1.47,1.3,2.23,5.5,3.04,4.47.89,6.08,1.88,7.37,4.34,3.04,5.86-1.92,11.44-10.46,11.89-1.97.09-3.8.04-4.07-.09h0Z"/>
    <path class="cls-11" d="M456.43,562.23l-7.37-1.16,1.92-12.47c1.03-6.88,2.01-12.6,2.1-12.69.18-.22,12.25,1.47,14.44,2.01.94.22.98.4.72,2.32-.18,1.12-.36,2.1-.4,2.19-.04.04-2.23-.22-4.87-.63-2.59-.4-4.83-.67-4.96-.58-.09.13-.36,1.34-.58,2.73-.45,2.91-.89,2.64,5.23,3.53l3.71.54-.27,2.01c-.13,1.12-.36,2.1-.49,2.23-.09.09-2.15-.09-4.56-.49-2.41-.36-4.51-.54-4.69-.4-.18.18-.36,1.61-.45,3.22l-.13,2.86,4.83.76c2.68.45,4.96.85,5.05.98.09.09.04,1.12-.09,2.23-.22,1.56-.49,2.1-1.03,2.06-.4-.04-4.02-.58-8.09-1.25h0Z"/>
    <path class="cls-11" d="M344.69,558.93c-.27-2.1-.98-6.7-1.52-10.24l-.98-6.39h-1.34c-.72.04-2.23.18-3.4.36-2.32.31-2.41.22-2.68-2.99l-.13-1.3,9.61-1.47c5.27-.8,9.65-1.39,9.74-1.34.04.09.22,1.16.4,2.37l.22,2.23-2.86.31c-1.56.18-3.08.49-3.4.67-.49.27-.27,2.41.94,10.37.85,5.5,1.43,10.15,1.25,10.32-.13.13-1.39.4-2.77.58l-2.55.31-.54-3.8h0Z"/>
    <path class="cls-11" d="M363.02,560.13c0-.22-.63-5.94-1.3-12.69-.72-6.75-1.16-12.43-1.03-12.56.18-.18,1.47-.4,2.91-.49,2.5-.22,2.55-.18,2.59.94,0,.63.54,6.44,1.25,12.92l1.21,11.71h-1.12c-.63,0-1.92.13-2.82.27-.94.18-1.7.13-1.7-.09h0Z"/>
    <path class="cls-11" d="M433.99,559.6c-2.1-.09-2.59-.27-2.59-.89,0-.4.4-4.96.89-10.15.49-5.14.89-9.65.89-9.92,0-.4-.67-.58-1.88-.58-1.07,0-2.64-.13-3.49-.27l-1.56-.27.13-2.19c.09-1.25.4-2.19.67-2.19.31,0,4.69.31,9.83.76l9.25.76v4.78l-3.53-.31c-4.29-.36-3.75-1.56-4.78,11-.4,5.05-.89,9.25-1.03,9.39s-1.43.18-2.82.09h0Z"/>
    <path class="cls-11" d="M380.72,557.18c-.13-.8-.36-4.07-.49-7.29-.13-3.17-.36-7.2-.49-8.94l-.27-3.13-3.53.13-3.53.18v-2.28c0-1.25.04-2.28.13-2.32.22-.04,19.31-1.16,19.35-1.12.04.04.18,1.12.31,2.41l.27,2.32h-2.55c-4.78,0-4.74-.09-4.42,4.87.18,2.37.45,7.06.58,10.46l.31,6.12h-5.45l-.22-1.43h0Z"/>
    <path class="cls-11" d="M405.39,558.17c-2.28-.67-4.2-2.19-5.27-4.11-1.07-1.88-1.12-2.23-1.25-11.84l-.13-9.97h5.94l-.31,8.18c-.36,9.07-.04,11.31,1.88,12.78,1.39,1.12,3.98,1.21,5.45.22,1.79-1.3,2.28-3.26,2.28-9.48,0-3.17.13-7.02.27-8.54l.31-2.73h5.32l-.18,9.07c-.22,9.97-.54,11.35-3.17,14.08-2.23,2.32-7.51,3.44-11.13,2.32h0Z"/>
  </g>
</svg>